<?xml version="1.0" encoding="UTF-8"?>
<svg xmlns="http://www.w3.org/2000/svg" xmlns:xlink="http://www.w3.org/1999/xlink" width="1000pt" height="600pt" viewBox="0 0 1000 600" version="1.1">
<g id="surface317">
<rect x="0" y="0" width="1000" height="600" style="fill:rgb(100%,100%,100%);fill-opacity:1;stroke:none;"/>
<path style="fill-rule:nonzero;fill:rgb(43.921569%,50.196078%,56.470588%);fill-opacity:1;stroke-width:1;stroke-linecap:butt;stroke-linejoin:miter;stroke:rgb(43.921569%,50.196078%,56.470588%);stroke-opacity:1;stroke-miterlimit:10;" d="M 142.855469 139.285156 L 35857.144531 139.285156 L 35857.144531 460.714844 L 142.855469 460.714844 Z M 142.855469 139.285156 "/>
<path style="fill:none;stroke-width:5.357143;stroke-linecap:square;stroke-linejoin:miter;stroke:rgb(87.45098%,87.45098%,87.45098%);stroke-opacity:1;stroke-dasharray:35.714286,71.428571;stroke-miterlimit:10;" d="M 142.855469 353.570312 L 35857.144531 353.570312 "/>
<path style="fill:none;stroke-width:5.357143;stroke-linecap:round;stroke-linejoin:miter;stroke:rgb(87.45098%,87.45098%,87.45098%);stroke-opacity:1;stroke-miterlimit:10;" d="M 142.855469 460.714844 L 35857.144531 460.714844 "/>
<path style="fill:none;stroke-width:5.357143;stroke-linecap:square;stroke-linejoin:miter;stroke:rgb(87.45098%,87.45098%,87.45098%);stroke-opacity:1;stroke-dasharray:35.714286,71.428571;stroke-miterlimit:10;" d="M 142.855469 246.429688 L 35857.144531 246.429688 "/>
<path style="fill:none;stroke-width:5.357143;stroke-linecap:round;stroke-linejoin:miter;stroke:rgb(87.45098%,87.45098%,87.45098%);stroke-opacity:1;stroke-miterlimit:10;" d="M 142.855469 139.285156 L 35857.144531 139.285156 "/>
<path style="fill-rule:nonzero;fill:rgb(68.980392%,75.568627%,57.45098%);fill-opacity:1;stroke-width:35.714286;stroke-linecap:butt;stroke-linejoin:miter;stroke:rgb(41.388235%,45.341176%,34.470588%);stroke-opacity:1;stroke-miterlimit:10;" d="M 196.429688 332.144531 C 206.289062 332.144531 214.285156 324.148438 214.285156 314.285156 L 214.285156 285.714844 C 214.285156 275.851562 206.289062 267.855469 196.429688 267.855469 L 89.285156 267.855469 C 79.421875 267.855469 71.429688 275.851562 71.429688 285.714844 L 71.429688 314.285156 C 71.429688 324.148438 79.421875 332.144531 89.285156 332.144531 Z M 196.429688 332.144531 "/>
<path style="fill:none;stroke-width:10.714286;stroke-linecap:round;stroke-linejoin:miter;stroke:rgb(100%,100%,100%);stroke-opacity:1;stroke-miterlimit:10;" d="M 142.855469 300 L 500 300 "/>
<path style=" stroke:none;fill-rule:nonzero;fill:rgb(100%,100%,100%);fill-opacity:1;" d="M 514.285156 300 L 478.203125 285.714844 L 485.714844 300 L 478.203125 314.285156 Z M 514.285156 300 "/>
<path style="fill-rule:nonzero;fill:rgb(93.411765%,38.235294%,35.490196%);fill-opacity:1;stroke-width:35.714286;stroke-linecap:butt;stroke-linejoin:miter;stroke:rgb(56.047059%,22.941176%,21.294118%);stroke-opacity:1;stroke-miterlimit:10;" d="M 910.714844 332.144531 C 920.578125 332.144531 928.570312 324.148438 928.570312 314.285156 L 928.570312 285.714844 C 928.570312 275.851562 920.578125 267.855469 910.714844 267.855469 L 803.570312 267.855469 C 793.710938 267.855469 785.714844 275.851562 785.714844 285.714844 L 785.714844 314.285156 C 785.714844 324.148438 793.710938 332.144531 803.570312 332.144531 Z M 910.714844 332.144531 "/>
<path style="fill:none;stroke-width:10.714286;stroke-linecap:round;stroke-linejoin:miter;stroke:rgb(100%,100%,100%);stroke-opacity:1;stroke-miterlimit:10;" d="M 857.144531 300 L 928.570312 300 "/>
<path style=" stroke:none;fill-rule:nonzero;fill:rgb(100%,100%,100%);fill-opacity:1;" d="M 942.855469 300 L 906.777344 285.714844 L 914.285156 300 L 906.777344 314.285156 Z M 942.855469 300 "/>
</g>
</svg>
